<mxfile host="app.diagrams.net" modified="2023-05-31T09:16:47.887Z" agent="Mozilla/5.0 (Windows NT 10.0; Win64; x64) AppleWebKit/537.36 (KHTML, like Gecko) Chrome/113.0.0.0 Safari/537.36" version="21.3.3" etag="xj91iU0dS6H-s3pwG925" type="github">
  <diagram name="Page-1" id="G1VXjitRbA4F_LG6pt5o">
    <mxGraphModel>
      <root>
        <mxCell id="0" />
        <mxCell id="1" parent="0" />
      </root>
    </mxGraphModel>
  </diagram>
</mxfile>
